<svg xmlns="http://www.w3.org/2000/svg" version="1.1" xmlns:xlink="http://www.w3.org/1999/xlink" width="512" height="512" x="0" y="0" viewBox="0 0 500 500" style="enable-background:new 0 0 512 512" xml:space="preserve" class=""><g transform="matrix(0.64,0,0,0.64,89.94769958496093,89.99999897003173)"><path d="M240.19 486.86H68.91a41.547 41.547 0 0 1-41.5-41.5V54.64a41.547 41.547 0 0 1 41.5-41.5h171.28a41.482 41.482 0 0 1 34.41 18.293 6.5 6.5 0 1 1-10.773 7.277 28.5 28.5 0 0 0-23.637-12.57H68.91a28.532 28.532 0 0 0-28.5 28.5v390.72a28.532 28.532 0 0 0 28.5 28.5h171.28a28.58 28.58 0 0 0 27.921-22.749 6.5 6.5 0 1 1 12.736 2.606 41.626 41.626 0 0 1-40.657 33.143z" fill="#000000" opacity="1" data-original="#000000" class=""></path><path d="M192.97 58.69h-75.3A21.4 21.4 0 0 1 97.721 45.2L88.43 22.062a6.5 6.5 0 0 1 6.031-8.922h121.721a6.5 6.5 0 0 1 6.031 8.922L212.922 45.2a21.4 21.4 0 0 1-19.952 13.49zm-88.894-32.55 5.708 14.217a8.461 8.461 0 0 0 7.888 5.333h75.3a8.46 8.46 0 0 0 7.888-5.333l5.709-14.217zM251.02 268.63a6.5 6.5 0 0 1-6.5-6.5v-73.81a6.5 6.5 0 1 1 13 0v73.81a6.5 6.5 0 0 1-6.5 6.5zM217.83 342.44a6.5 6.5 0 0 1-6.5-6.5V188.32a6.5 6.5 0 0 1 13 0v147.62a6.5 6.5 0 0 1-6.5 6.5zM332.55 268.63a6.5 6.5 0 0 1-6.5-6.5v-73.81a6.5 6.5 0 0 1 13 0v73.81a6.5 6.5 0 0 1-6.5 6.5zM299.36 268.63a6.5 6.5 0 0 1-6.5-6.5v-73.81a6.5 6.5 0 0 1 13 0v73.81a6.5 6.5 0 0 1-6.5 6.5zM136.3 342.44a6.5 6.5 0 0 1-6.5-6.5V188.32a6.5 6.5 0 0 1 13 0v147.62a6.5 6.5 0 0 1-6.5 6.5zM169.49 342.44a6.5 6.5 0 0 1-6.5-6.5V188.32a6.5 6.5 0 0 1 13 0v147.62a6.5 6.5 0 0 1-6.5 6.5zM414.09 268.63a6.5 6.5 0 0 1-6.5-6.5v-73.81a6.5 6.5 0 0 1 13 0v73.81a6.5 6.5 0 0 1-6.5 6.5zM380.89 268.63a6.5 6.5 0 0 1-6.5-6.5v-73.81a6.5 6.5 0 0 1 13 0v73.81a6.5 6.5 0 0 1-6.5 6.5z" fill="#000000" opacity="1" data-original="#000000" class=""></path><path d="M459.993 194.824H90.39a12.256 12.256 0 0 1-11.745-9.14 12.947 12.947 0 0 1 5.478-14.737l181.966-113.1a17.138 17.138 0 0 1 18.2 0l181.967 113.1a12.948 12.948 0 0 1 5.478 14.738 12.256 12.256 0 0 1-11.741 9.139zm-368.743-13h367.883l-181.7-112.94a4.117 4.117 0 0 0-4.481 0zM225.766 385.33H117.3a16.519 16.519 0 0 1-16.5-16.5v-22.89a16.519 16.519 0 0 1 16.5-16.5h108.466a6.5 6.5 0 1 1 0 13H117.3a3.5 3.5 0 0 0-3.5 3.5v22.89a3.5 3.5 0 0 0 3.5 3.5h108.466a6.5 6.5 0 1 1 0 13zM452.276 430.139H261.021a16.519 16.519 0 0 1-16.5-16.5v-117.49a16.519 16.519 0 0 1 16.5-16.5h191.255a16.519 16.519 0 0 1 16.5 16.5v117.49a16.518 16.518 0 0 1-16.5 16.5zm-191.255-137.49a3.505 3.505 0 0 0-3.5 3.5v117.49a3.505 3.505 0 0 0 3.5 3.5h191.255a3.5 3.5 0 0 0 3.5-3.5v-117.49a3.5 3.5 0 0 0-3.5-3.5z" fill="#000000" opacity="1" data-original="#000000" class=""></path><path d="M462.276 352.394H251.021a6.5 6.5 0 0 1-6.5-6.5v-33.7a6.5 6.5 0 0 1 6.5-6.5h211.255a6.5 6.5 0 0 1 6.5 6.5v33.7a6.5 6.5 0 0 1-6.5 6.5zm-204.755-13h198.255v-20.7H257.521zM291.713 411.053a25.33 25.33 0 1 1 25.329-25.329 25.358 25.358 0 0 1-25.329 25.329zm0-37.659a12.33 12.33 0 1 0 12.329 12.33 12.344 12.344 0 0 0-12.329-12.33zM275.191 148.968a28.2 28.2 0 1 1 28.2-28.2 28.235 28.235 0 0 1-28.2 28.2zm0-43.407a15.2 15.2 0 1 0 15.2 15.2 15.22 15.22 0 0 0-15.2-15.2zM214.871 460.816H94.232a6.5 6.5 0 0 1 0-13h120.639a6.5 6.5 0 1 1 0 13zM436.16 377.287h-82.341a6.5 6.5 0 0 1 0-13h82.341a6.5 6.5 0 0 1 0 13zM436.16 402.181h-82.341a6.5 6.5 0 0 1 0-13h82.341a6.5 6.5 0 0 1 0 13z" fill="#000000" opacity="1" data-original="#000000" class=""></path></g></svg>