
<svg xmlns="http://www.w3.org/2000/svg" version="1.1"
    xmlns:xlink="http://www.w3.org/1999/xlink" width="512" height="512" x="0" y="0"
    viewBox="0 0 512 512" style="enable-background:new 0 0 512 512" xml:space="preserve"
    class="">
    <g
        transform="matrix(0.6400000000000001,0,0,0.6400000000000001,92.1598163223266,92.16000549316405)">
        <path
            d="m497.529 232.532-69.298-182.26h62.672a7 7 0 1 0 0-14H289.515c-3.241-15.554-17.054-27.276-33.556-27.276s-30.315 11.722-33.557 27.276H21.014a7 7 0 1 0 0 14h62.755l-69.298 182.26a6.997 6.997 0 0 0-.457 2.487c0 44.06 35.846 79.905 79.905 79.905 44.061 0 79.906-35.846 79.906-79.905 0-.851-.155-1.693-.457-2.487l-69.299-182.26h118.333c1.688 8.1 6.247 15.154 12.556 20.061v110.548h-5.81a7 7 0 0 0-7 7v146.383h-39.774a17.968 17.968 0 0 0-2.32-5.704c-2.549-4.063-6.517-6.888-11.173-7.953l-16.878-3.866c-9.632-2.213-19.267 3.838-21.472 13.47l-21.002 91.698c-1.066 4.655-.25 9.457 2.299 13.52 2.548 4.062 6.516 6.888 11.171 7.954l16.879 3.865c1.341.308 2.682.454 4.002.454 6.631 0 12.757-3.712 15.845-9.546l59.29 58.627c4.146 4.147 9.593 6.221 15.04 6.221s10.896-2.074 15.044-6.222a21.152 21.152 0 0 0 4.234-6.044l4.813 4.813c4.006 4.007 9.346 6.213 15.039 6.213h.004c5.692-.001 11.033-2.208 15.04-6.214a21.182 21.182 0 0 0 4.386-6.369c3.526 2.452 7.719 3.771 12.121 3.771h.004c5.693-.001 11.034-2.208 15.041-6.214 4.005-4.006 6.211-9.347 6.212-15.04 0-.26-.005-.52-.014-.778a21.095 21.095 0 0 0 12.304-6.04c4.006-4.006 6.212-9.348 6.212-15.04 0-1.395-.136-2.769-.395-4.107l10.182-4.494c3.362 4.021 8.387 6.463 13.755 6.463 1.321 0 2.662-.147 4.003-.454l16.879-3.865c9.633-2.207 15.676-11.84 13.47-21.473l-21.002-91.7c-2.207-9.633-11.848-15.669-21.473-13.469l-16.879 3.866c-9.633 2.205-15.676 11.837-13.47 21.472l.178.778-5.522 2.402c-4.885 2.125-9.799 1.838-14.609-.847-5.098-2.849-9.628-5.507-13.624-7.852a751.165 751.165 0 0 0-6.219-3.622V187.882a7 7 0 0 0-7-7h-5.811V70.334c6.309-4.907 10.868-11.962 12.556-20.062H407.93l-69.299 182.26a6.997 6.997 0 0 0-.457 2.487c0 44.06 35.846 79.905 79.906 79.905s79.905-35.846 79.905-79.905a6.974 6.974 0 0 0-.456-2.487zM93.919 62.969l62.756 165.051H31.164zm0 237.956c-33.975 0-62.012-25.846-65.52-58.905H159.44c-3.508 33.059-31.545 58.905-65.521 58.905zm162.04-277.929c11.181 0 20.276 9.096 20.276 20.276S267.14 63.55 255.959 63.55s-20.277-9.097-20.277-20.277 9.096-20.277 20.277-20.277zM143.003 433.602l-16.878-3.865c-2.073-.475-3.424-2.628-2.949-4.701l21.002-91.699c.41-1.792 2.075-3.043 3.857-3.043.279 0 .562.03.843.095l16.878 3.866h.002a3.895 3.895 0 0 1 2.437 1.746c.561.896.743 1.944.512 2.954l-21.002 91.698c-.476 2.073-2.634 3.424-4.702 2.949zm185.381 21.378c-1.362 1.362-3.189 2.112-5.144 2.113a7.216 7.216 0 0 1-5.14-2.111l-40.386-40.389a7 7 0 0 0-9.9 9.898L308.2 464.88c.362.362.735.71 1.119 1.043.173.22.36.432.562.634a7.216 7.216 0 0 1 2.111 5.141 7.213 7.213 0 0 1-7.255 7.255h-.002a7.215 7.215 0 0 1-5.139-2.111l-11.148-11.148a11.776 11.776 0 0 0-.347-.348l-31.949-31.951a7 7 0 0 0-9.9 9.898l32.205 32.207a7.211 7.211 0 0 1 1.984 5.009 7.22 7.22 0 0 1-2.113 5.142c-1.362 1.363-3.188 2.113-5.143 2.114a7.216 7.216 0 0 1-5.14-2.111l-18.74-18.741a20.89 20.89 0 0 0-.33-.33l-16.208-16.209a7 7 0 0 0-9.9 9.898l16.452 16.453c2.713 2.844 2.672 7.364-.121 10.158-2.838 2.836-7.451 2.835-10.312-.026l-64.977-64.251 17.026-74.341h43.039c-1.534 1.793-3.09 3.633-4.68 5.516-8.188 9.696-16.655 19.723-25.765 27.36a7.001 7.001 0 0 0-.882 9.843c22.312 26.8 48.076 8.955 61.917-.631 6.771-4.69 15.575-3.896 21.401 1.93l52.416 52.416c2.838 2.834 2.838 7.447.003 10.281zM343.724 336a3.892 3.892 0 0 1 2.437-1.746l16.879-3.866a3.79 3.79 0 0 1 .843-.095c1.783 0 3.448 1.252 3.858 3.043l21.002 91.699c.475 2.073-.876 4.227-2.949 4.701l-16.878 3.865c-2.066.476-4.226-.874-4.701-2.948l-21.002-91.699a3.886 3.886 0 0 1 .511-2.954zm-40.939 20.635c8.578 4.792 18.175 5.312 27.022 1.463l3.116-1.356 16.354 71.403-12.243 5.404-51.168-51.167c-10.521-10.521-27.037-12.01-39.271-3.539-16.714 11.574-27.938 16.243-38.4 7.946 7.866-7.48 15.188-16.15 21.797-23.977 9.109-10.787 18.528-21.941 25.158-24.421 9.529-3.558 15.277-.595 33.755 10.246 4.055 2.38 8.653 5.077 13.88 7.998zm-52.538-31.357c-4.443 1.661-8.812 4.828-13.271 8.986h-.827V194.882h39.621v130.967c-8.416-3.351-16.115-4.088-25.523-.571zm12.712-144.396h-14.001V76.829a34.296 34.296 0 0 0 14.001 0zM418.081 62.969l62.755 165.051H355.325zm0 237.956c-33.976 0-62.013-25.846-65.521-58.905h131.041c-3.508 33.059-31.545 58.905-65.52 58.905z"
            fill="#000000" opacity="1" data-original="#000000" class=""></path>
    </g>
</svg>