<svg xmlns="http://www.w3.org/2000/svg" version="1.1" xmlns:xlink="http://www.w3.org/1999/xlink" width="512" height="512" x="0" y="0" viewBox="0 0 66 66" style="enable-background:new 0 0 512 512" xml:space="preserve" class=""><g transform="matrix(0.64,0,0,0.64,11.867139558792115,11.879304084777832)"><path d="M51.3 57.4H19.8c-2.8 0-5.1-2.3-5.1-5.1 0-.6.4-1 1-1s1 .4 1 1c0 1.7 1.4 3.1 3.1 3.1h31.5c1.7 0 3.1-1.4 3.1-3.1V6.1C54.4 4.4 53 3 51.3 3H19.8c-1.7 0-3.1 1.4-3.1 3.1v2.7c0 .6-.4 1-1 1s-1-.4-1-1V6.1C14.7 3.3 17 1 19.8 1h31.5c2.8 0 5.1 2.3 5.1 5.1v46.2c0 2.8-2.3 5.1-5.1 5.1zm-35.7-30c-.6 0-1-.4-1-1v-9.6c0-.6.4-1 1-1s1 .4 1 1v9.6c0 .5-.4 1-1 1z" fill="#000000" opacity="1" data-original="#000000" class=""></path><path d="M54.4 65h-.5l-31.4-2.9c-2.8-.3-4.9-2.8-4.6-5.6v-.1c0-.3.1-.6.4-.8s.5-.3.8-.2c.2 0 .4.1.6.1h31.5c1.7 0 3.1-1.4 3.1-3.1V9.5c0-.3.1-.5.3-.7s.5-.3.8-.3l3.7.3c2.8.3 4.9 2.8 4.6 5.6l-4.2 46c-.2 2.6-2.4 4.6-5.1 4.6zM20 57.4c.2 1.4 1.4 2.5 2.8 2.7L54.2 63c1.7.2 3.2-1.1 3.4-2.8l4.2-46c.2-1.7-1.1-3.2-2.8-3.4l-2.6-.2v41.8c0 2.8-2.3 5.1-5.1 5.1H20zM16.3 43.3H11c-.6 0-1-.4-1-1v-3.1c0-1.1-.4-2.2-1.2-3.1-1.4-1.5-2-3.5-1.7-5.5.4-2.9 2.9-5.3 5.8-5.6 1.9-.2 3.8.4 5.2 1.6 1.4 1.3 2.2 3.1 2.2 5 0 1.6-.6 3.2-1.7 4.4-.6.7-1.3 1.8-1.3 3.2v3.1c0 .6-.5 1-1 1zm-4.4-2h3.3v-2.1c0-1.6.6-3.2 1.8-4.5.8-.9 1.2-1.9 1.2-3.1 0-1.3-.6-2.6-1.6-3.5s-2.3-1.3-3.7-1.1c-2 .2-3.7 1.9-4 3.9-.2 1.4.2 2.8 1.2 3.9 1.1 1.2 1.7 2.8 1.7 4.4v2.1z" fill="#000000" opacity="1" data-original="#000000" class=""></path><path d="M22 48H5.2c-.6 0-1-.4-1-1v-2.5c0-1.7 1.4-3.1 3.1-3.1h12.6c1.7 0 3.1 1.4 3.1 3.1V47c0 .5-.4 1-1 1zM6.2 46H21v-1.5c0-.6-.5-1.1-1.1-1.1H7.3c-.6 0-1.1.5-1.1 1.1z" fill="#000000" opacity="1" data-original="#000000" class=""></path><path d="M24 52.6H3.2c-.6 0-1-.4-1-1V47c0-.6.4-1 1-1H24c.6 0 1 .4 1 1v4.6c0 .6-.4 1-1 1zm-19.8-2H23V48H4.2zM49.5 9H23.6c-.6 0-1-.4-1-1s.4-1 1-1h25.9c.6 0 1 .4 1 1s-.5 1-1 1zM49.5 14.7H28.1c-.6 0-1-.4-1-1s.4-1 1-1h21.4c.6 0 1 .4 1 1s-.5 1-1 1zM49.5 20.5H34.6c-.6 0-1-.4-1-1s.4-1 1-1h14.8c.6 0 1 .4 1 1s-.4 1-.9 1zM49.5 26.2h-12c-.6 0-1-.4-1-1s.4-1 1-1h11.9c.6 0 1 .4 1 1s-.4 1-.9 1zM49.5 32H37.9c-.6 0-1-.4-1-1s.4-1 1-1h11.5c.6 0 1 .4 1 1s-.4 1-.9 1zM49.5 37.8H25.6c-.6 0-1-.4-1-1s.4-1 1-1h23.9c.6 0 1 .4 1 1s-.5 1-1 1zM49.5 43.5H31c-.6 0-1-.4-1-1s.4-1 1-1h18.5c.6 0 1 .4 1 1s-.5 1-1 1zM40.4 51.5c-1.1 0-2-.2-2.7-.7-.4-.2-.6-.5-.9-.8-.9 1-1.8 1.7-2.9 1.4-1.5-.5-1.6-2.7-1.6-3.4 0-.6.4-1 1-1s1 .4 1 1c0 .5.1 1.1.2 1.4.2-.1.8-.6 1.7-1.9.2-.4.7-.5 1.1-.4s.7.5.7.9c0 0 0 .8.7 1.2.6.4 2 .8 5.4-.5.5-.2 1.1.1 1.3.6s-.1 1.1-.6 1.3c-1.6.5-3.2.9-4.4.9zM33.1 31.2c-.1 0-.2 0-.3-.1l-6.2-2.3c-.5-.2-.8-.8-.6-1.3s.8-.8 1.3-.6l4.2 1.5-1.5-4.2c-.2-.5.1-1.1.6-1.3s1.1.1 1.3.6l2.3 6.2c.1.4 0 .8-.2 1.1-.4.3-.7.4-.9.4z" fill="#000000" opacity="1" data-original="#000000" class=""></path><path d="M26.9 29c-.3 0-.5-.1-.7-.3L4.6 7c-.7-.6-.9-1.7-.6-2.6.7-1.5 1.7-2.6 3.2-3.2.9-.4 2-.2 2.7.5l21.6 21.6c.2.2.3.4.3.7s-.1.5-.3.7l-3.9 3.9c-.2.3-.5.4-.7.4zM8.2 3h-.1C7 3.5 6.3 4.2 5.9 5.2c-.1.1 0 .3.1.4l20.9 20.9 2.5-2.5L8.5 3.1C8.4 3 8.3 3 8.2 3z" fill="#000000" opacity="1" data-original="#000000" class=""></path><path d="M6.8 8.9c-.3 0-.5-.1-.7-.3L4.6 7c-.7-.7-.9-1.7-.6-2.6.7-1.5 1.7-2.6 3.2-3.2.9-.4 2-.2 2.7.5l1.5 1.5c.2.2.3.4.3.7s-.1.5-.3.7l-3.9 4c-.2.2-.4.3-.7.3zM8.2 3h-.1C7 3.5 6.3 4.2 5.9 5.2c-.1.1 0 .3.1.4l.8.8 2.5-2.5-.8-.8C8.4 3 8.3 3 8.2 3z" fill="#000000" opacity="1" data-original="#000000" class=""></path><path d="M8.2 14.8c-.5 0-.9-.4-1-.9l-.1-.9h-.6c-.2 0-.4-.1-.6-.3l-.5-.5C4.2 11 4.2 9 5.4 7.8l.7-.7c.4-.4 1-.4 1.4 0s.4 1 0 1.4l-.7.7c-.4.4-.4 1.1 0 1.6l.2.2 1.1.2c.4.1.8.4.8.9l.2 1.6c.1.5-.3 1-.9 1.1.1 0 .1 0 0 0z" fill="#000000" opacity="1" data-original="#000000" class=""></path></g></svg>