<svg xmlns="http://www.w3.org/2000/svg" version="1.1" xmlns:xlink="http://www.w3.org/1999/xlink" width="512" height="512" x="0" y="0" viewBox="0 0 105 105" style="enable-background:new 0 0 512 512" xml:space="preserve" class=""><g transform="matrix(0.64,0,0,0.64,18.900297145843503,18.899891510009766)"><path d="M72.097 98.405h-4.505v-4.033c0-2.592-2.11-4.7-4.702-4.7h-1.335v-3.35a4.411 4.411 0 0 0-4.406-4.407H20.276a4.411 4.411 0 0 0-4.406 4.406v3.351h-1.335a4.706 4.706 0 0 0-4.701 4.7v4.033H5.329a1 1 0 1 0 0 2h66.767a1 1 0 1 0 0-2zM17.87 86.321a2.409 2.409 0 0 1 2.406-2.406H57.15a2.409 2.409 0 0 1 2.406 2.406v3.351H17.87zM23.728 19.551a23.307 23.307 0 0 0 7.616-3.454 1 1 0 1 0-1.143-1.642 21.312 21.312 0 0 1-6.965 3.158 1 1 0 1 0 .492 1.938zM19.111 18.282c-.425.034-.858.056-1.302.07a1 1 0 0 0 .028 1.999h.029c.477-.014.943-.04 1.4-.075a1 1 0 0 0 .92-1.074.99.99 0 0 0-1.075-.92zM40.403 24.97l-7.495 6.672-2.338-2.435c-2-2.04-5.22-1.993-7.178-.07a5.072 5.072 0 0 0-.072 7.174l5.72 5.898c1.906 1.948 4.994 2.022 6.997.237l11.115-9.891a5.072 5.072 0 0 0 .416-7.165 5.072 5.072 0 0 0-7.165-.42z" fill="#000000" opacity="1" data-original="#000000" class=""></path><path d="M98.929 84.318 84.196 68.601a2.499 2.499 0 0 0-3.392-.249l-6.461-6.893 5.479-5.135.565.603a2.777 2.777 0 0 0 3.927.127l2.77-2.596a2.776 2.776 0 0 0 .128-3.928L65.229 27.077a2.736 2.736 0 0 0-1.145-.72c.15-3.46-.025-7.094-.541-10.883a3.8 3.8 0 0 0-4.37-3.23c-11.84 1.89-18.6-3.21-21.58-6.42-1.363-1.456-3.848-1.787-5.52-.07-3.14 3.24-10.18 8.39-22.13 6.49a3.803 3.803 0 0 0-4.37 3.23c-3.31 24.44 7.43 42.44 28.71 48.14.09.02.17.03.26.03h.05c.08 0 .17-.01.26-.03a46.824 46.824 0 0 0 5.35-1.782L56.55 79.27a2.777 2.777 0 0 0 3.927.127l2.77-2.596a2.777 2.777 0 0 0 .127-3.928l-.566-.603 5.48-5.136 6.46 6.893a2.498 2.498 0 0 0 .028 3.402l14.733 15.719a6.464 6.464 0 0 0 9.125.294 6.462 6.462 0 0 0 .296-9.125zM78.454 54.865 61.44 70.812l-18.117-19.33 17.014-15.947c.86.92-1.288-1.374 18.117 19.33zM41.39 49.421a2.78 2.78 0 0 0-3.926-.128l-2.77 2.597a2.756 2.756 0 0 0-.878 1.937 2.756 2.756 0 0 0 .75 1.99l4.142 4.419a43.936 43.936 0 0 1-4.145 1.378c-20.06-5.48-30.15-22.61-27-45.87.133-1.062 1.181-1.715 2.06-1.52 12.85 2.04 20.48-3.56 23.88-7.08.715-.715 1.89-.743 2.62.05 3.25 3.49 10.6 9.06 23.37 7.03a1.788 1.788 0 0 1 2.07 1.52c.508 3.741.663 7.315.498 10.714-.271.122-.53.278-.76.492l-2.769 2.596a2.776 2.776 0 0 0-.128 3.928l.565.603-17.014 15.947zm55.875 42.563a4.463 4.463 0 0 1-6.298-.203l-14.733-15.72a.523.523 0 0 1 .025-.739l5.738-5.378a.522.522 0 0 1 .74.024L97.47 85.686a4.462 4.462 0 0 1-.205 6.298z" fill="#000000" opacity="1" data-original="#000000" class=""></path><path d="M86.56 76a1 1 0 0 0-1.455 1.373l2.055 2.178a1.001 1.001 0 0 0 1.455-1.373zM83.846 73.126a1 1 0 0 0-1.453 1.375l.415.44a1 1 0 0 0 1.454-1.375z" fill="#000000" opacity="1" data-original="#000000" class=""></path></g></svg>