<svg xmlns="http://www.w3.org/2000/svg" version="1.1" xmlns:xlink="http://www.w3.org/1999/xlink" width="512" height="512" x="0" y="0" viewBox="0 0 128 128" style="enable-background:new 0 0 512 512" xml:space="preserve" class=""><g transform="matrix(0.64,0,0,0.64,23.053499450683596,23.112511825561526)"><path d="M66.944 100h-3c-.492-4.492-4.306-8-8.927-8H36.983c-4.62 0-8.435 3.508-8.926 8h-3.002c-4.993 0-9.055 4.063-9.055 9.056V110a2 2 0 0 0 2 2h56a2 2 0 0 0 2-2v-.944c0-4.993-4.063-9.056-9.056-9.056zm-29.961-4h18.034a4.991 4.991 0 0 1 4.885 4H32.098a4.991 4.991 0 0 1 4.885-4zM20.11 108a5.063 5.063 0 0 1 4.944-4h41.889a5.063 5.063 0 0 1 4.945 4zM112.063 83.533a7.609 7.609 0 0 0-2.529-5.289L77.347 49.318l5.01-5.576c.356.05.712.082 1.07.082 2.1 0 4.19-.854 5.7-2.535h.002c2.821-3.142 2.562-7.994-.578-10.816L75.08 18.367a7.599 7.599 0 0 0-5.528-1.952 7.607 7.607 0 0 0-5.289 2.528 7.614 7.614 0 0 0-1.951 5.529c.026.503.102.997.222 1.475L42.29 48.474a7.656 7.656 0 0 0-6.776 2.46c-1.368 1.523-2.06 3.486-1.952 5.529s1.007 3.92 2.529 5.288l13.47 12.105a7.63 7.63 0 0 0 5.116 1.96c2.1 0 4.19-.856 5.7-2.537a7.658 7.658 0 0 0 1.725-6.998l5.005-5.57L99.294 89.64a7.608 7.608 0 0 0 5.528 1.95 7.61 7.61 0 0 0 5.288-2.528 7.604 7.604 0 0 0 1.953-5.528zM67.239 21.617a3.636 3.636 0 0 1 2.727-1.213c.903 0 1.763.33 2.441.938l13.47 12.105a3.664 3.664 0 0 1 .275 5.168 3.664 3.664 0 0 1-5.166.277l-5.47-4.917-8.001-7.19a3.636 3.636 0 0 1-1.208-2.526 3.639 3.639 0 0 1 .932-2.642zm-9.836 48.988a3.664 3.664 0 0 1-5.168.277l-13.47-12.106a3.634 3.634 0 0 1-1.208-2.526 3.654 3.654 0 0 1 3.657-3.854c.87 0 1.743.309 2.44.934l13.473 12.108a3.665 3.665 0 0 1 .276 5.167zm8.066-14.055-.004.005-5.468 6.085-.193-.173-.004-.004-13.47-12.106-.007-.005-.189-.17 18.511-20.598 3.642 3.273 10.024 9.008.006.005.19.172-5.469 6.086-.003.003zm41.666 29.837a3.628 3.628 0 0 1-2.526 1.208c-.982.066-1.914-.279-2.641-.932L69.78 57.737l4.892-5.444 32.187 28.926a3.663 3.663 0 0 1 .275 5.168zM17.042 62.756l11 6a2 2 0 0 0 1.915-3.512l-11-6a2 2 0 0 0-1.915 3.512zM28.94 82.304l-8 5a2 2 0 0 0 2.12 3.392l8-5a2 2 0 0 0-2.12-3.392zM18 77h11a2 2 0 0 0 0-4H18a2 2 0 0 0 0 4z" fill="#000000" opacity="1" data-original="#000000" class=""></path></g></svg>